<svg width="16" height="12" viewBox="0 0 16 12" fill="none" xmlns="http://www.w3.org/2000/svg">
<g clip-path="url(#clip0_3081_1758)">
<path d="M8.00002 3.03003C6.59002 3.03003 5.40002 4.15003 5.40002 5.59003C5.40002 7.03003 6.59002 8.15003 8.00002 8.15003C9.41002 8.15003 10.6 7.03003 10.6 5.59003C10.6 4.15003 9.41002 3.03003 8.00002 3.03003ZM8.00002 6.14003C7.64002 6.14003 7.40002 5.87003 7.40002 5.58003C7.40002 5.29003 7.64002 5.02003 8.00002 5.02003C8.36002 5.02003 8.60002 5.29003 8.60002 5.58003C8.60002 5.87003 8.36002 6.14003 8.00002 6.14003Z" fill="#787878"/>
<path d="M15.36 5.35002C15.36 5.35002 15.36 5.34002 15.36 5.33002C15.36 5.32002 15.35 5.30002 15.34 5.28002C15.32 5.24002 15.3 5.17002 15.27 5.10002C15.21 4.95002 15.12 4.74002 15 4.50002C14.76 4.01002 14.38 3.35002 13.82 2.70002C12.7 1.37002 10.84 0.0200195 8.00005 0.0200195C5.16005 0.0200195 3.31005 1.35002 2.18005 2.68002C1.62005 3.34002 1.25005 3.99002 1.01005 4.48002C0.890049 4.73002 0.800049 4.93002 0.740049 5.08002C0.710049 5.16002 0.690049 5.22002 0.670049 5.26002C0.670049 5.28002 0.660049 5.30002 0.650049 5.31002C0.650049 5.31002 0.650049 5.32002 0.650049 5.33002V5.65002V5.34002L0.550049 5.65002L0.660049 5.96002C0.660049 5.96002 0.660049 5.97002 0.660049 5.98002C0.660049 5.99002 0.670049 6.01002 0.680049 6.03002C0.700049 6.07002 0.720049 6.13002 0.750049 6.20002C0.810049 6.34002 0.900049 6.54002 1.03005 6.78002C1.28005 7.25002 1.66005 7.87002 2.22005 8.50002C3.35005 9.77002 5.20005 11.06 7.98005 11.11C10.78 11.16 12.65 9.85002 13.78 8.55002C14.34 7.91002 14.73 7.27002 14.97 6.79002C15.09 6.55002 15.18 6.34002 15.24 6.20002C15.27 6.13002 15.29 6.07002 15.31 6.02002C15.31 6.00002 15.32 5.98002 15.33 5.97002V5.94002L15.43 5.63002L15.33 5.32002L15.36 5.35002ZM13.2 5.91002C13.01 6.28002 12.71 6.78002 12.28 7.27002C11.43 8.24002 10.1 9.18002 8.02005 9.14002C5.92005 9.11002 4.57005 8.15002 3.72005 7.20002C3.29005 6.72002 2.99005 6.23002 2.80005 5.87002C2.75005 5.78002 2.71005 5.70002 2.68005 5.63002C2.71005 5.55002 2.76005 5.46002 2.80005 5.36002C2.99005 4.98002 3.28005 4.47002 3.71005 3.97002C4.55005 2.98002 5.89005 2.00002 8.00005 2.00002C10.11 2.00002 11.45 2.98002 12.29 3.97002C12.72 4.47002 13.01 4.98002 13.2 5.36002C13.25 5.46002 13.29 5.56002 13.33 5.64002C13.29 5.72002 13.25 5.81002 13.2 5.91002Z" fill="#787878"/>
</g>
<defs>
<clipPath id="clip0_3081_1758">
<rect width="14.9" height="11.14" fill="white" transform="translate(0.550049)"/>
</clipPath>
</defs>
</svg>
